<?xml version="1.0" encoding="UTF-8" standalone="no"?>
<!DOCTYPE svg PUBLIC "-//W3C//DTD SVG 1.1//EN"
 "http://www.w3.org/Graphics/SVG/1.1/DTD/svg11.dtd">
<!-- Generated by graphviz version 14.1.5 (20260411.2331)
 -->
<!-- Title: fort_knox Pages: 1 -->
<svg width="498pt" height="465pt"
 viewBox="0.00 0.00 498.00 465.00" xmlns="http://www.w3.org/2000/svg" xmlns:xlink="http://www.w3.org/1999/xlink">
<g id="graph0" class="graph" transform="scale(1 1) rotate(0) translate(36 429.08)">
<title>fort_knox</title>
<polygon fill="white" stroke="none" points="-36,36 -36,-429.08 461.58,-429.08 461.58,36 -36,36"/>
<g id="clust1" class="cluster">
<title>cluster_perimeter</title>
<path fill="#eef1ec" stroke="#5b6650" stroke-width="2" d="M27.6,-8C27.6,-8 360.6,-8 360.6,-8 366.6,-8 372.6,-14 372.6,-20 372.6,-20 372.6,-273.04 372.6,-273.04 372.6,-279.04 366.6,-285.04 360.6,-285.04 360.6,-285.04 27.6,-285.04 27.6,-285.04 21.6,-285.04 15.6,-279.04 15.6,-273.04 15.6,-273.04 15.6,-20 15.6,-20 15.6,-14 21.6,-8 27.6,-8"/>
<text xml:space="preserve" text-anchor="start" x="66.97" y="-270.64" font-family="Helvetica,sans-Serif" font-weight="bold" font-size="12.00">RING 1 · PERIMETER</text>
<text xml:space="preserve" text-anchor="start" x="186.97" y="-270.64" font-family="Helvetica,sans-Serif" font-size="12.00"> — fences · guards · guns</text>
<text xml:space="preserve" text-anchor="start" x="65.85" y="-260.54" font-family="Helvetica,sans-Serif" font-size="10.00">Cloud Armor — WAF + rate&#45;limit ban + Adaptive Protection</text>
</g>
<g id="clust2" class="cluster">
<title>cluster_iap</title>
<path fill="#fef7e0" stroke="#f9ab00" stroke-width="4" d="M35.6,-16C35.6,-16 352.6,-16 352.6,-16 358.6,-16 364.6,-22 364.6,-28 364.6,-28 364.6,-235.04 364.6,-235.04 364.6,-241.04 358.6,-247.04 352.6,-247.04 352.6,-247.04 35.6,-247.04 35.6,-247.04 29.6,-247.04 23.6,-241.04 23.6,-235.04 23.6,-235.04 23.6,-28 23.6,-28 23.6,-22 29.6,-16 35.6,-16"/>
<text xml:space="preserve" text-anchor="start" x="56.1" y="-232.64" font-family="Helvetica,sans-Serif" font-weight="bold" font-size="12.00">RING 2 · THE GATE</text>
<text xml:space="preserve" text-anchor="start" x="164.85" y="-232.64" font-family="Helvetica,sans-Serif" font-size="12.00"> — no entry without ID (the 302)</text>
<text xml:space="preserve" text-anchor="start" x="54.22" y="-222.54" font-family="Helvetica,sans-Serif" font-size="10.00">Identity&#45;Aware Proxy — Google&#45;grade auth (billions of accounts)</text>
</g>
<g id="clust3" class="cluster">
<title>cluster_building</title>
<path fill="#e8f0fe" stroke="#1967d2" stroke-width="2" d="M43.6,-24C43.6,-24 344.6,-24 344.6,-24 350.6,-24 356.6,-30 356.6,-36 356.6,-36 356.6,-197.04 356.6,-197.04 356.6,-203.04 350.6,-209.04 344.6,-209.04 344.6,-209.04 43.6,-209.04 43.6,-209.04 37.6,-209.04 31.6,-203.04 31.6,-197.04 31.6,-197.04 31.6,-36 31.6,-36 31.6,-30 37.6,-24 43.6,-24"/>
<text xml:space="preserve" text-anchor="start" x="74.85" y="-194.64" font-family="Helvetica,sans-Serif" font-weight="bold" font-size="12.00">RING 3 · SEALED BUILDING</text>
<text xml:space="preserve" text-anchor="start" x="235.35" y="-194.64" font-family="Helvetica,sans-Serif" font-size="12.00"> — one road in</text>
<text xml:space="preserve" text-anchor="start" x="89.1" y="-184.54" font-family="Helvetica,sans-Serif" font-size="10.00">Locked Cloud Run ingress — load&#45;balancer only</text>
</g>
<g id="clust4" class="cluster">
<title>cluster_vault</title>
<path fill="#fde7e9" stroke="#d93025" stroke-width="2" d="M51.6,-32C51.6,-32 336.6,-32 336.6,-32 342.6,-32 348.6,-38 348.6,-44 348.6,-44 348.6,-159.04 348.6,-159.04 348.6,-165.04 342.6,-171.04 336.6,-171.04 336.6,-171.04 51.6,-171.04 51.6,-171.04 45.6,-171.04 39.6,-165.04 39.6,-159.04 39.6,-159.04 39.6,-44 39.6,-44 39.6,-38 45.6,-32 51.6,-32"/>
<text xml:space="preserve" text-anchor="start" x="47.47" y="-156.64" font-family="Helvetica,sans-Serif" font-weight="bold" font-size="12.00">RING 4 · VAULT DOOR</text>
<text xml:space="preserve" text-anchor="start" x="173.47" y="-156.64" font-family="Helvetica,sans-Serif" font-size="12.00"> — barely touch anything inside</text>
<text xml:space="preserve" text-anchor="start" x="126.6" y="-146.54" font-family="Helvetica,sans-Serif" font-size="10.00">Least&#45;privilege service account</text>
</g>
<g id="clust5" class="cluster">
<title>cluster_cage</title>
<path fill="#fff7d6" stroke="#b8860b" stroke-width="2" d="M90.6,-40C90.6,-40 296.6,-40 296.6,-40 302.6,-40 308.6,-46 308.6,-52 308.6,-52 308.6,-121.04 308.6,-121.04 308.6,-127.04 302.6,-133.04 296.6,-133.04 296.6,-133.04 90.6,-133.04 90.6,-133.04 84.6,-133.04 78.6,-127.04 78.6,-121.04 78.6,-121.04 78.6,-52 78.6,-52 78.6,-46 84.6,-40 90.6,-40"/>
<text xml:space="preserve" text-anchor="start" x="137.72" y="-118.64" font-family="Helvetica,sans-Serif" font-weight="bold" font-size="12.00">RING 5 · THE CAGE</text>
<text xml:space="preserve" text-anchor="start" x="106.22" y="-108.54" font-family="Helvetica,sans-Serif" font-size="10.00">Private&#45;IP Cloud SQL + Secret Manager</text>
</g>
<!-- gold -->
<g id="node1" class="node">
<title>gold</title>
<path fill="#f4b53a" stroke="#8a6d1a" stroke-width="2" d="M288.7,-95.04C288.7,-95.04 98.5,-95.04 98.5,-95.04 92.5,-95.04 86.5,-89.04 86.5,-83.04 86.5,-83.04 86.5,-60 86.5,-60 86.5,-54 92.5,-48 98.5,-48 98.5,-48 288.7,-48 288.7,-48 294.7,-48 300.7,-54 300.7,-60 300.7,-60 300.7,-83.04 300.7,-83.04 300.7,-89.04 294.7,-95.04 288.7,-95.04"/>
<text xml:space="preserve" text-anchor="start" x="157.97" y="-71.22" font-family="Helvetica,sans-Serif" font-weight="bold" font-size="14.00">THE GOLD</text>
<text xml:space="preserve" text-anchor="start" x="108.1" y="-61.02" font-family="Helvetica,sans-Serif" font-size="10.00">your data — DB rows · secrets · pages</text>
</g>
<!-- attacker -->
<g id="node2" class="node">
<title>attacker</title>
<path fill="#fce8e6" stroke="#d93025" stroke-width="2" d="M145.2,-388.08C145.2,-388.08 12,-388.08 12,-388.08 6,-388.08 0,-382.08 0,-376.08 0,-376.08 0,-354.04 0,-354.04 0,-348.04 6,-342.04 12,-342.04 12,-342.04 145.2,-342.04 145.2,-342.04 151.2,-342.04 157.2,-348.04 157.2,-354.04 157.2,-354.04 157.2,-376.08 157.2,-376.08 157.2,-382.08 151.2,-388.08 145.2,-388.08"/>
<text xml:space="preserve" text-anchor="start" x="48.22" y="-365.21" font-family="Helvetica,sans-Serif" font-weight="bold" font-size="13.00">GAMILAS</text>
<text xml:space="preserve" text-anchor="start" x="21.6" y="-355.06" font-family="Helvetica,sans-Serif" font-size="10.00">brute force · scan · insider</text>
</g>
<!-- attacker&#45;&gt;gold -->
<g id="edge1" class="edge">
<title>attacker&#45;&gt;gold</title>
<path fill="none" stroke="#d93025" stroke-width="2.2" d="M87.62,-341.18C92.15,-329.7 98.12,-314.56 104.93,-297.31"/>
<polygon fill="#d93025" stroke="#d93025" stroke-width="2.2" points="108.14,-298.72 108.55,-288.14 101.62,-296.15 108.14,-298.72"/>
<text xml:space="preserve" text-anchor="middle" x="139.02" y="-306.59" font-family="Helvetica,sans-Serif" font-size="11.00">repelled at</text>
<text xml:space="preserve" text-anchor="middle" x="139.02" y="-294.59" font-family="Helvetica,sans-Serif" font-size="11.00">the wall (403)</text>
</g>
<!-- noc -->
<g id="node3" class="node">
<title>noc</title>
<path fill="#e6f4ea" stroke="#188038" stroke-width="2" d="M413.58,-393.08C413.58,-393.08 201.62,-393.08 201.62,-393.08 195.62,-393.08 189.62,-387.08 189.62,-381.08 189.62,-381.08 189.62,-349.04 189.62,-349.04 189.62,-343.04 195.62,-337.04 201.62,-337.04 201.62,-337.04 413.58,-337.04 413.58,-337.04 419.58,-337.04 425.58,-343.04 425.58,-349.04 425.58,-349.04 425.58,-381.08 425.58,-381.08 425.58,-387.08 419.58,-393.08 413.58,-393.08"/>
<text xml:space="preserve" text-anchor="start" x="219.1" y="-370.21" font-family="Helvetica,sans-Serif" font-weight="bold" font-size="13.00">WATCHTOWERS &amp; ALARMS</text>
<text xml:space="preserve" text-anchor="start" x="219.1" y="-360.06" font-family="Helvetica,sans-Serif" font-size="10.00">Logging · Alerts · NOC · 365&#45;day archive</text>
<text xml:space="preserve" text-anchor="start" x="211.23" y="-350.06" font-family="Helvetica,sans-Serif" font-size="10.00">alarms on the way IN and OUT with the loot</text>
</g>
<!-- noc&#45;&gt;gold -->
<g id="edge2" class="edge">
<title>noc&#45;&gt;gold</title>
<path fill="none" stroke="#188038" stroke-width="1.4" stroke-dasharray="1,5" d="M292.3,-324.93C288.94,-316.33 285.15,-306.64 281.06,-296.19"/>
<polygon fill="#188038" stroke="#188038" stroke-width="1.4" points="289,-326.09 295.9,-334.13 295.52,-323.54 289,-326.09"/>
<polygon fill="#188038" stroke="#188038" stroke-width="1.4" points="284.37,-295.05 277.47,-287.01 277.85,-297.6 284.37,-295.05"/>
<text xml:space="preserve" text-anchor="middle" x="312.11" y="-306.59" font-family="Helvetica,sans-Serif" font-size="11.00">watches</text>
<text xml:space="preserve" text-anchor="middle" x="312.11" y="-294.59" font-family="Helvetica,sans-Serif" font-size="11.00">every ring</text>
</g>
</g>
</svg>
